<svg xmlns="http://www.w3.org/2000/svg" width="130" height="130" viewBox="0 0 130 130"><defs><style>.a{fill:#4db1d2;}.b{fill:#0b3974;}.c{fill:#1b6fa7;}.d{fill:#fff;}.e{fill:none;stroke:#fff;stroke-linecap:round;stroke-miterlimit:10;stroke-width:3px;}</style></defs><title>atm</title><circle class="a" cx="64.82" cy="61.17" r="43.51"/><rect class="b" x="16.49" y="17.92" width="97.03" height="9.35" rx="4.23"/><path class="c" d="M29.58,22.59h70.83a0,0,0,0,1,0,0v85.74a4,4,0,0,1-4,4H33.58a4,4,0,0,1-4-4V22.59A0,0,0,0,1,29.58,22.59Z"/><rect class="d" x="84.5" y="22.59" width="7.53" height="89.75"/><line class="e" x1="50.3" y1="54.56" x2="50.3" y2="97.12"/><line class="e" x1="64.67" y1="54.56" x2="64.67" y2="97.12"/><path class="d" d="M41.69,22.59H72.12a0,0,0,0,1,0,0V42a2,2,0,0,1-2,2H43.69a2,2,0,0,1-2-2V22.59A0,0,0,0,1,41.69,22.59Z"/></svg>