<svg xmlns="http://www.w3.org/2000/svg" width="130" height="130" viewBox="0 0 130 130"><defs><style>.a{fill:#4db1d2;}.b{fill:#1b6fa7;}</style></defs><title>barrier-free</title><circle class="a" cx="59.46" cy="62.43" r="43.51"/><path class="b" d="M112.31,15.67h-9.77a2.17,2.17,0,0,0-2.15,1.93H84.62L81.33,30.32H77.94L73,48.24H44.43a8.87,8.87,0,0,0-8.38,5.94L29.68,72.35H26.93a8,8,0,0,0-8,8,3.16,3.16,0,0,0,3.16,3.16H24.9l.88,0-2.73,7.79a11.57,11.57,0,1,0,5.87.75l3-8.56H50.75a25.91,25.91,0,1,0,51.34,5,25.79,25.79,0,0,0-5.28-15.64c-.12-.15-.22-.31-.33-.45-.24-.3-.49-.58-.74-.86s-.44-.52-.67-.77-.41-.4-.61-.6-.6-.61-.92-.9-.44-.36-.65-.55-.64-.55-1-.8-.68-.48-1-.72l-.71-.5c-.59-.38-1.2-.73-1.83-1.07h0a25.6,25.6,0,0,0-6.15-2.33L89.55,37.4l2-7h0v0H87.31l1.79-6.93h11.33a2.18,2.18,0,0,0,2.11,1.69h9.77a4.71,4.71,0,0,0,0-9.41ZM35.82,72.34l5.69-16.25A3.11,3.11,0,0,1,44.43,54h27L68.8,63.6a25.84,25.84,0,0,0-12.92,8.75H35.82ZM91.9,96.25a15.24,15.24,0,0,1-1.08,1.88A17.58,17.58,0,0,1,77.26,106c-.36,0-.72,0-1.09,0s-.72,0-1.08,0a17.53,17.53,0,0,1-13.54-7.83,18.4,18.4,0,0,1-1.09-1.88,17.39,17.39,0,0,1-1.84-7.82c0-.31,0-.61,0-.92s0-.47.06-.71A16.57,16.57,0,0,1,59,85c0-.25.1-.49.16-.73s.14-.57.22-.85a16.71,16.71,0,0,1,1.12-2.85,17.75,17.75,0,0,1,5.42-6.4,17.53,17.53,0,0,1,9.21-3.32q.54,0,1.08,0c.37,0,.73,0,1.09,0a17.55,17.55,0,0,1,13.56,7.84,14.54,14.54,0,0,1,1.08,1.88,17.45,17.45,0,0,1,0,15.64ZM24.56,108.54a5.79,5.79,0,1,1,5.79-5.79A5.79,5.79,0,0,1,24.56,108.54Z"/><path class="b" d="M87.3,80.58a13.57,13.57,0,0,0-7.89-5.38,6.2,6.2,0,0,0-.72-.16,10.76,10.76,0,0,0-1.27-.17c-.41,0-.82-.06-1.24-.06s-.84,0-1.24.06a13.55,13.55,0,0,0-9.88,5.71c-.15.21-.27.46-.41.68l-.24.4c-.14.25-.3.47-.43.72l-.16.34a0,0,0,0,0,0,0,13.63,13.63,0,0,0,0,11.38,13.2,13.2,0,0,0,1.25,2.16,13.52,13.52,0,0,0,9.87,5.7c.4,0,.82.06,1.24.06s.83,0,1.24-.06a13.54,13.54,0,0,0,9.88-5.7,13.2,13.2,0,0,0,1.25-2.16A13.49,13.49,0,0,0,87.3,80.58Zm-4,10.2c0,.1,0,.2-.09.29L80.16,89.3l-1.48-.88,4.56-2.63a7.45,7.45,0,0,1,.48,2.64A7.57,7.57,0,0,1,83.33,90.78ZM82,83.64l-3.06,1.77-1.51.86V81a7.83,7.83,0,0,1,2,.63,7.56,7.56,0,0,1,2.3,1.74C81.8,83.46,81.91,83.54,82,83.64Zm-4.57,6.94,4,2.28.63.37a7.54,7.54,0,0,1-4.19,2.54c-.13,0-.25.07-.39.09Zm-8.31.49a7.67,7.67,0,0,1-.47-2.64,7.45,7.45,0,0,1,.48-2.64l3.06,1.76,1.51.89L69.77,90.7Zm5.81-4.8L71,84l-.65-.38a7.22,7.22,0,0,1,.87-.88A7.56,7.56,0,0,1,74.94,81v4.12Zm0,9.6a7.42,7.42,0,0,1-4.21-2.28,3.06,3.06,0,0,1-.35-.37l4.57-2.64v5.29Z"/><path class="b" d="M24.46,100.88a1.95,1.95,0,1,0,1.94,2A1.95,1.95,0,0,0,24.46,100.88Z"/></svg>