<svg xmlns="http://www.w3.org/2000/svg" width="130" height="130" viewBox="0 0 130 130"><defs><style>.a{fill:#4db1d2;}.b{fill:#1b6fa7;}</style></defs><title>fork</title><circle class="a" cx="68.62" cy="57.54" r="43.51"/><path class="b" d="M114.32,16.27l-.59-.58a6.16,6.16,0,0,0-8.72,0L70.32,50.38c-6.07,6.07-10.12,4.82-15.66,4.17-6.88-.81-11.73-.61-21.44,9.17L15.68,81.26c-5.29,5.29,2.25,13.2,7.66,7.78L41.71,70.67a3,3,0,0,1,4.26,0l.56.57a3,3,0,0,1,0,4.25L28.08,93.94c-3,3-1.9,6,.05,7.92s4.9,3.09,7.93.06L54.51,83.47a3,3,0,0,1,4.25,0l.57.56a3,3,0,0,1,0,4.26L41,106.65c-5.42,5.42,2.49,13,7.78,7.67L66.28,96.78c9.78-9.7,10-14.56,9.17-21.44-.65-5.54-1.9-9.58,4.18-15.66L114.32,25A6.18,6.18,0,0,0,114.32,16.27Z"/></svg>