<svg xmlns="http://www.w3.org/2000/svg" width="130" height="130" viewBox="0 0 130 130"><defs><style>.a{fill:#4db1d2;}.b{fill:#1b6fa7;}.c{fill:#0b3974;}.d{fill:#fff;}</style></defs><title>ic</title><circle class="a" cx="64.55" cy="63.79" r="43.51"/><rect class="b" x="20.27" y="36.22" width="89.45" height="58.95" rx="4" transform="translate(-21.34 32.73) rotate(-24.41)"/><path class="c" d="M93,79.06a1.19,1.19,0,0,1-.31,2.14L40.16,105a2,2,0,0,1-2.64-1L18,61.13a2,2,0,0,1,1-2.65L50.29,44.3a3.37,3.37,0,0,1,3.32.48Z"/><path class="d" d="M43.71,97.17a.73.73,0,0,1-1.31.6l-4.18-9.21a.73.73,0,0,1,1.31-.6Z"/><path class="d" d="M50.59,82.94a2.87,2.87,0,0,1,2,1.06.72.72,0,0,1-.4.92.73.73,0,0,1-.79-.12,3,3,0,0,0-3.09-.32,3.2,3.2,0,0,0-1.72,2.19,5.05,5.05,0,0,0,.49,3.43c1.06,2.34,3.2,3.49,5,2.68a3.33,3.33,0,0,0,2-2.66.65.65,0,0,1,.38-.59.67.67,0,0,1,.92.32,1.75,1.75,0,0,1-.09,1.23A5,5,0,0,1,52.59,94c-2.64,1.19-5.52-.16-6.91-3.22s-.5-6.17,2.14-7.36A4.83,4.83,0,0,1,50.59,82.94Z"/></svg>