<svg xmlns="http://www.w3.org/2000/svg" width="130" height="130" viewBox="0 0 130 130"><defs><style>.a{fill:#4db1d2;}.b{fill:#1b6fa7;}</style></defs><title>lunch</title><circle class="a" cx="66.82" cy="71.11" r="43.51"/><path class="b" d="M89.27,66.19c5.64,2,11.39-7,18.41-21.46,6.59-13.57,9.23-20.88,7.49-25.92s-7-1.67-9,.75S83.09,48,80.44,51.4L67.28,67.16,56.58,54.35c-1.59-2-1.09-4.36-.7-6.66.68-4.09.63-11.43-4.07-17.07S36.09,15.33,35,14.32a3,3,0,0,0-4-.51c-1.33,1.07-.75,2.35.3,3.65L44.77,34.12c1.15,1.42,1,2.68-.16,3.59a2.66,2.66,0,0,1-3.56-.17L27.18,20.36a3,3,0,0,0-4.7,3.79L36.35,41.34a2.65,2.65,0,0,1-.6,3.51c-1.11.91-2.39.82-3.53-.6L18.77,27.59c-1.05-1.3-2.17-2.14-3.5-1.06a3,3,0,0,0-.35,4c.76,1.24,7.88,14.06,12.39,19.84S39,57.78,43.14,58c2.32.11,4.77.12,6.36,2.09L60.94,74.74,36,104.58a5.29,5.29,0,0,0,.73,7.51l.68.54a5.29,5.29,0,0,0,7.49-.86l22.37-28.9,24.84,31.86a5.28,5.28,0,0,0,7.49.86l.67-.55a5.29,5.29,0,0,0,.74-7.5L73.59,74.71,80,66.4C81.61,64.42,86.14,65.07,89.27,66.19Z"/></svg>