<svg xmlns="http://www.w3.org/2000/svg" width="130" height="130" viewBox="0 0 130 130"><defs><style>.a{fill:#4db1d2;}.b{fill:#1b6fa7;}.c{fill:#fff;}</style></defs><title>order</title><circle class="a" cx="65" cy="65.49" r="43.51"/><path class="b" d="M72.42,69a1.62,1.62,0,0,0-1.55,1.13h0s-3.2,7.78-3.2,11.66a4.9,4.9,0,0,0,3.13,4.34v7.18a.69.69,0,0,0,.69.69h1.84a.7.7,0,0,0,.7-.7V70.65A1.63,1.63,0,0,0,72.42,69Z"/><path class="b" d="M63.84,69a1.15,1.15,0,0,0-1.14,1s0,6.08,0,6.08a.68.68,0,0,1-.67.61.66.66,0,0,1-.66-.65V70.16A1.15,1.15,0,0,0,60.42,69h-.36a1.15,1.15,0,0,0-1,1.13V76.1a.67.67,0,0,1-1.33,0V70.06a1.14,1.14,0,0,0-1.14-1,1.15,1.15,0,0,0-1.15,1.14V78.1A2.09,2.09,0,0,0,56,79.59l1.47,1.77a4,4,0,0,1,1.13,2.79V93a1.09,1.09,0,0,0,1.09,1.09h1A1.09,1.09,0,0,0,61.84,93V84.15A4,4,0,0,1,63,81.36l1.47-1.77A2.09,2.09,0,0,0,65,78.1V70.16A1.14,1.14,0,0,0,63.84,69Z"/><path class="b" d="M97.22,21H32.33a1.54,1.54,0,0,0-1.54,1.53v84.58a1.54,1.54,0,0,0,1.54,1.54H97.22a1.54,1.54,0,0,0,1.54-1.54V22.54A1.54,1.54,0,0,0,97.22,21ZM66.81,100.9A20,20,0,1,1,84.63,83.07,20,20,0,0,1,66.81,100.9ZM88.1,53.53H41.44V50.78H88.1ZM53.51,45.11H51.65l-1.42-4.53v4.53h-1.8v-8.3h2.41l1.74,5.55,1.74-5.55h2.41v8.3h-1.8V40.58Zm9.86-5v1.58H60.5v1.84h3.75v1.62H58.64V36.82h5.53v1.61H60.5v1.64Zm2.63,5V36.82h1.94l2.71,4.83V36.82h1.94V45.1H70.65l-2.71-4.83V45.1ZM77.81,43c.75,0,1.2-.54,1.2-1.43V36.81h2.1v4.9a3.31,3.31,0,1,1-6.62,0v-4.9h2.16v4.74C76.65,42.47,77.06,43,77.81,43ZM88.1,31.15H41.44V28.39H88.1Z"/><rect class="b" x="38.13" y="26.1" width="53.78" height="31.29"/><path class="c" d="M44.19,40.36c.1,2,.13,2.91.13,3.71v5.46a.7.7,0,0,1-1.38,0V39.94a1.07,1.07,0,0,1,1.12-1.17c.71,0,1,.31,1.4,1.27l1.74,4.75c.45,1.22.69,2,.91,2.77h.07c.19-.69.52-1.71.91-2.77L50.83,40c.36-1,.68-1.27,1.41-1.27a1.08,1.08,0,0,1,1.11,1.17v9.59a.65.65,0,0,1-.69.61.63.63,0,0,1-.69-.61V44.07c0-.77,0-1.71.13-3.69v-.24H52c-.32,1-.84,2.6-1.16,3.47L49,48.79a.8.8,0,0,1-.8.58.77.77,0,0,1-.83-.58l-1.91-5.18c-.3-.79-.88-2.53-1.17-3.47h-.08Z"/><path class="c" d="M57.82,48.2a.54.54,0,0,0,.61.61h4.51a.56.56,0,0,1,.55.61.57.57,0,0,1-.55.61H58.21a1.61,1.61,0,0,1-1.81-1.81V40.7a1.61,1.61,0,0,1,1.81-1.81h4.57a.54.54,0,0,1,.55.57.55.55,0,0,1-.55.61H58.32a.45.45,0,0,0-.5.48v3.14h4.33a.57.57,0,0,1,0,1.14H57.82Z"/><path class="c" d="M67.09,40.25c.08.91.12,2.4.12,4v5.25a.71.71,0,0,1-1.4,0V39.85a1.05,1.05,0,0,1,1.1-1.08c.59,0,1,.28,1.43,1.08l2.88,4.93a28.64,28.64,0,0,1,1.29,2.56l.24.48h.07c-.07-1-.11-3-.11-3.83V39.38a.63.63,0,0,1,.7-.61.62.62,0,0,1,.69.61v9.74c0,.64-.29,1-.82,1s-.75-.24-1.18-1l-3.48-5.94c-.36-.64-.48-.88-1.37-2.75l-.1-.21Z"/><path class="c" d="M78.48,46a3.05,3.05,0,0,0,.58,2.09,2.59,2.59,0,0,0,2.16,1A2.69,2.69,0,0,0,83.42,48,3.1,3.1,0,0,0,84,46V39.4a.66.66,0,0,1,.72-.63.65.65,0,0,1,.72.63v6.79a4,4,0,0,1-.7,2.51,4.56,4.56,0,0,1-6.92.06A4,4,0,0,1,77,46.19V39.4a.65.65,0,0,1,.72-.63.66.66,0,0,1,.72.63Z"/></svg>