<svg xmlns="http://www.w3.org/2000/svg" width="130" height="130" viewBox="0 0 130 130"><defs><style>.a{fill:#4db1d2;}.b{fill:#1b6fa7;}</style></defs><title>toilet</title><circle class="a" cx="70.24" cy="65" r="43.51"/><path class="b" d="M106.69,106.43H55.93a5.18,5.18,0,0,1-5.18-5.18V93.78a5.18,5.18,0,0,0-3.61-4.93c-12.79-4.14-26.42-21.1-30-35a5.19,5.19,0,0,1,5-6.52h84.54a5.17,5.17,0,0,1,5.17,5.17v48.79A5.17,5.17,0,0,1,106.69,106.43Z"/><path class="b" d="M22.9,30.53h83.79a5.17,5.17,0,0,1,5.17,5.18v1.47a5.17,5.17,0,0,1-5.17,5.18H21.43a5.18,5.18,0,0,1-5.18-5.18h0A6.65,6.65,0,0,1,22.9,30.53Z"/></svg>