<svg xmlns="http://www.w3.org/2000/svg" width="130" height="130" viewBox="0 0 130 130"><defs><style>.a{fill:#4db1d2;}.b{fill:#0b3974;}.c{fill:#1b6fa7;}.d{fill:#fff;}</style></defs><title>wallet</title><circle class="a" cx="74.57" cy="64.7" r="43.51"/><path class="b" d="M48.39,30.27H65.64A27.75,27.75,0,0,1,93.39,58V83.27a0,0,0,0,1,0,0H20.64a0,0,0,0,1,0,0V58A27.75,27.75,0,0,1,48.39,30.27Z"/><circle class="b" cx="52.78" cy="26.91" r="4.95"/><circle class="b" cx="62.09" cy="26.91" r="4.95"/><path class="c" d="M102.35,84.08c0,11.34-10.5,20-20.55,23-5.36,1.61-10.88,1.28-16.4,1.28-11.78,0-26,2.07-37-3-8-3.69-15.81-11-16.41-20.26A22.55,22.55,0,0,1,17,69.6c2.82-3.4,8.16-5,9.91-9.2,1.07-2.56.9-5.71,2-8.41a23.41,23.41,0,0,1,3.88-6.38A23.72,23.72,0,0,1,44.8,38c5.66-1.47,12.24-.86,18-.76,10.25.18,19.51,6.22,22.83,16.13,1,2.92.71,6,2.58,8.56s5,3.49,7.31,5.65A22.57,22.57,0,0,1,102.35,84.08Z"/><path class="d" d="M51,66.4a1.63,1.63,0,0,1-.36-.89c0-.6.46-1,1.17-1a1.28,1.28,0,0,1,1.11.71l4.61,6.86,4.6-6.86a1.3,1.3,0,0,1,1.12-.71,1,1,0,0,1,1.17,1,1.58,1.58,0,0,1-.37.91l-4.91,6.44h3.64a.7.7,0,0,1,.7.71.67.67,0,0,1-.7.67H58.54v2.6h4.19a.7.7,0,0,1,.7.73.69.69,0,0,1-.7.73H58.54V82a1.07,1.07,0,0,1-2.13,0V78.28H52.22a.73.73,0,0,1,0-1.46h4.19v-2.6H52.22a.69.69,0,0,1-.7-.67.7.7,0,0,1,.7-.71h3.64Z"/></svg>