<svg xmlns="http://www.w3.org/2000/svg" width="32" height="32" viewBox="0 0 32 32"><defs><style>.a{fill:#ff710b;}.b{fill:#fff;}</style></defs><title>food-C</title><circle class="a" cx="16" cy="16" r="16"/><path class="b" d="M16,9.1c0,.1.5,2.7.5,3.7a3,3,0,0,1-2,3l.3,6.9a.6.6,0,0,1-.6.7H12.3a.7.7,0,0,1-.7-.7l.4-6.9a3,3,0,0,1-2-3,20.5,20.5,0,0,1,.5-3.7c.1-.6,1.3-.6,1.3,0v4.1c.1.1.5.1.5,0s.2-4.1.2-4.1,1.3-.6,1.4,0,.2,3.3.3,4.1.4.1.4,0V9.1C14.7,8.5,15.9,8.5,16,9.1Zm3.4,8.2L19,22.6a.8.8,0,0,0,.7.8h1.6a.7.7,0,0,0,.7-.7V9.3a.7.7,0,0,0-.7-.7c-2.4,0-6.4,5.2-1.9,8.7Z"/></svg>