<svg xmlns="http://www.w3.org/2000/svg" width="32" height="32" viewBox="0 0 32 32"><defs><style>.a{fill:#afc429;}.b{fill:#fff;}</style></defs><title>mic-C</title><circle class="a" cx="16" cy="16" r="16"/><rect class="b" x="8.4" y="22.7" width="1.9" height="0.72" transform="translate(-13.6 13.4) rotate(-45)"/><polygon class="b" points="8.4 23.5 9.8 22.1 10.3 22.6 8.9 24 8.4 23.5"/><path class="b" d="M16.2,13.2,9.7,21l1.7,1.7,7.8-6.5Zm-4.8,9.5,7.8-6.5"/><path class="b" d="M9.7,21l6.5-7.8,3,3-7.8,6.5Z"/><path class="b" d="M16.5,12.4,20,15.9a3.8,3.8,0,0,0,2.5-.9l-5-5A3.1,3.1,0,0,0,16.5,12.4Z"/><path class="b" d="M20,15.9l-3.5-3.5a3.1,3.1,0,0,1,1-2.4l4.9,5a3.3,3.3,0,0,1-2.3.9Z"/><path class="b" d="M22.6,9.9a3.6,3.6,0,0,0-4.4-.6l4.9,4.9A3.6,3.6,0,0,0,22.6,9.9Z"/><path class="b" d="M18.2,9.3a4.1,4.1,0,0,1,1.9-.5,3.2,3.2,0,0,1,2.4,1.1,3.5,3.5,0,0,1,.6,4.3Z"/></svg>