<svg xmlns="http://www.w3.org/2000/svg" width="32" height="32" viewBox="0 0 32 32"><defs><style>.a{fill:#3dbfff;}.b{fill:#fff;}</style></defs><title>toire-C</title><circle class="a" cx="16" cy="16" r="16"/><path class="b" d="M24.5,20.1l.4.8a.4.4,0,0,1-.2.7l-2,1a1,1,0,0,1-1.4-.4L19.4,18H15a1.1,1.1,0,0,1-1-.9c-1-7.4-1-6.9-1-7.1a2,2,0,0,1,2.1-2,2,2,0,0,1,.2,4v1h4.1a.5.5,0,0,1,.5.5v1a.5.5,0,0,1-.5.5H15.7l.2,1H20a1,1,0,0,1,.9.6l1.8,3.8,1.1-.6a.5.5,0,0,1,.7.3ZM18.7,19H18a3.5,3.5,0,0,1-7-.5,3.4,3.4,0,0,1,1.8-3,8.8,8.8,0,0,1-.3-2.1A5.4,5.4,0,0,0,9,18.5a5.5,5.5,0,0,0,10.5,2.2Z"/></svg>