<?xml version="1.0" encoding="utf-8"?>
<!-- Svg Vector Icons : http://www.onlinewebfonts.com/icon -->
<!DOCTYPE svg PUBLIC "-//W3C//DTD SVG 1.1//EN" "http://www.w3.org/Graphics/SVG/1.1/DTD/svg11.dtd">
<svg version="1.1" xmlns="http://www.w3.org/2000/svg" xmlns:xlink="http://www.w3.org/1999/xlink" x="0px" y="0px" viewBox="0 0 1000 1000" enable-background="new 0 0 1000 1000" xml:space="preserve">
<metadata> Svg Vector Icons : http://www.onlinewebfonts.com/icon </metadata>
<g><g transform="translate(0.000000,511.000000) scale(0.100000,-0.100000)"><path d="M305.5,3931.7c-89.8-39.4-181.8-151.1-197.1-238.8c-6.6-39.4-11-495.1-6.6-1016.4c6.6-915.6,8.8-946.3,52.6-1005.4c24.1-32.9,72.3-81,105.1-105.1c57-43.8,92-46,825.8-52.6l764.5-6.6l4.4-2370.1l6.6-2370.2l54.8-109.5c67.9-140.2,199.3-271.6,339.5-339.5l109.5-54.8h2639.6h2639.6l109.5,54.8c140.2,67.9,271.6,199.3,339.5,339.5l54.8,109.5l6.5,2370.2l4.4,2370.1l764.5,6.6c733.8,6.6,768.9,8.8,825.8,52.6c32.9,24.1,81,72.3,105.2,105.1c46,59.2,46,83.3,46,1064.6c0,981.4,0,1005.4-46,1064.6c-24.1,32.9-72.3,81-105.2,105.1l-59.1,46l-4659.3,4.4C1190.5,3960.2,360.2,3955.8,305.5,3931.7z M9560.5,2735.7v-876.2h-701h-701V2210v350.5H8279c100.8,0,131.4,8.8,175.2,54.8c72.3,70.1,72.3,170.9,0,241l-52.6,54.8H5004.2H1606.7l-52.6-54.8c-35.1-32.9-54.8-78.9-54.8-120.5c0-111.7,83.2-175.2,230-175.2h120.5V2210v-350.5h-701h-701v876.2v876.2h4556.3h4556.3V2735.7z M5705.1,2089.5c0-473.2,0-473.2,54.8-525.7c32.9-35,78.9-54.8,120.5-54.8c41.6,0,87.6,19.7,120.5,54.8c54.8,52.6,54.8,52.6,54.8,525.7v471h876.2H7808L7803.6-307c-6.6-2858.6-6.6-2869.6-52.5-2928.7c-24.1-32.9-72.3-81.1-105.2-105.2c-59.1-46-67.9-46-2641.8-46c-2573.9,0-2582.6,0-2641.8,46c-32.9,24.1-81,72.3-105.1,105.2c-46,59.1-46,70.1-52.6,2928.7l-4.4,2867.4h1752.4h1752.4V2089.5z"/><path d="M6811.4,1454.2l-54.8-52.6V-593.9v-1995.6l54.8-52.6c32.9-35,78.8-54.8,120.5-54.8s87.6,19.7,120.5,54.8l54.8,52.6v1995.6v1995.6l-54.8,52.6c-32.9,35-78.8,54.8-120.5,54.8S6844.2,1489.3,6811.4,1454.2z"/><path d="M5759.9,753.3l-54.8-52.6V107.1v-593.6l54.8-52.6c32.9-35.1,78.9-54.8,120.5-54.8c41.6,0,87.6,19.7,120.5,54.8l54.8,52.6v593.6v593.6l-54.8,52.6C5968,788.3,5922,808,5880.4,808C5838.8,808,5792.8,788.3,5759.9,753.3z"/><path d="M3109.4-624.6c-89.8-39.4-181.8-151.1-197.1-238.8c-6.6-39.4-11-416.2-6.6-841.2c6.6-738.2,8.8-773.3,52.6-830.2c24.1-32.9,72.3-81,105.1-105.1c59.2-43.8,85.4-46,889.4-46c803.9,0,830.2,2.2,889.4,46c32.9,24.1,81,72.3,105.1,105.1c43.8,59.2,46,85.4,46,889.4c0,803.9-2.2,830.2-46,889.4c-24.1,32.9-72.3,81.1-105.1,105.1c-57,43.8-89.8,46-863.1,50.4C3343.7-596.1,3161.9-600.5,3109.4-624.6z M4653.7-1645.4v-701h-701h-701v701v701h701h701V-1645.4z"/><path d="M5759.9-1349.6l-54.8-52.6v-593.6v-593.7l54.8-52.6c70.1-72.3,170.8-72.3,241,0l54.8,52.6v593.7v593.6l-54.8,52.6c-32.9,35-78.9,54.8-120.5,54.8C5838.8-1294.9,5792.8-1314.6,5759.9-1349.6z"/></g></g>
</svg>